<svg xmlns="http://www.w3.org/2000/svg" viewBox="0 0 1131.83 240.48"><title>le-tabling</title><path d="M748.76,1234.12v51.68H613.49v-4c10.24,0,16.91-10.48,16.91-26.67V1143.38c0-14.53-8.57-21.2-18.81-21.2v-4h75.5v4c-10.24,0-22.15,4-22.15,21.2v138.37h8.57s63.11,0,71.21-47.63h4Z" transform="translate(-611.58 -1108.14)" style="fill:#231f20"/><path d="M878.55,1228.64H802.82c1.91,23.34,13.81,35.49,29.77,39.06,12.86,2.86,31.91-1.91,37.87-13.1l4,2.14c-3.81,12.38-17.86,31.2-49.77,31.2-31.2,0-52.63-28.82-52.63-56.68,0-33.58,22.86-57.63,55.73-57.63C862.36,1173.63,878.55,1191.49,878.55,1228.64Zm-29.05-4c0-30-9.76-46.92-22.86-46.92-14.05,0-23.82,24.05-23.82,46.92H849.5Z" transform="translate(-611.58 -1108.14)" style="fill:#231f20"/><path d="M1095,1118.14V1166h-4c-1.91-42.63-52.63-43.82-52.63-43.82h-4.52V1257c0,16.19,10.24,24.77,20.24,24.77v4h-75v-4c10,0,20.24-8.57,20.24-24.77v-134.8h-4.52s-50.49,1.19-52.39,43.82h-4v-47.87H1095Z" transform="translate(-611.58 -1108.14)" style="fill:#231f20"/><path d="M1201.73,1269.37l4,1.67c-1.9,7.62-12.86,16.91-27.86,16.91,0,0-21.2,0-23.82-19.29-3.57,10.48-17.62,19.29-34.53,19.29,0,0-27.39,0-27.39-24.29,0-26,20-28.34,61.68-38.82v-14.77c0-24.77-13.81-37.15-30.25-28.58-7.62,3.81-8.57,7.86-6.91,8.1a12.31,12.31,0,0,1,8.81,5.24,13.48,13.48,0,0,1-3.57,18.81,13.69,13.69,0,0,1-18.81-3.57c-2.86-4.52-3.1-10.24-.71-14.29s5.48-10.48,18.58-17.39c10.72-5.72,23.1-4.76,23.1-4.76,31.2,0,39.77,19.53,39.77,47.63v35.49s-0.24,16.67,11.43,16.67C1195.3,1273.42,1200.31,1273.42,1201.73,1269.37Zm-47.87-40.25c-23.34,5.24-31.2,16.43-31.2,28.58,0,0,0,15.72,15.48,15.72,8.1,0,13.57-6.43,15.72-12.15v-32.15Z" transform="translate(-611.58 -1108.14)" style="fill:#231f20"/><path d="M1340.1,1232.22c0,38.34-25.24,55.73-58.59,55.73-14.29,0-26.91-4.29-34.77-12.15-8.57,7.38-23.34,12.62-23.34,8.81V1136.24c0-8.1-2.38-11.67-12.15-15.24v-4l41.68-8.81v85.74c7.62-14.29,25.25-20.24,36.68-20.24C1316.29,1173.63,1340.1,1194.59,1340.1,1232.22Zm-34.06,1.91c0-38.11-8.81-50.49-28.34-50.49-16.19,0-24.77,13.34-24.77,30.25v30.25c0,30,14.77,39.77,28.34,39.77C1298.66,1283.9,1306,1270.56,1306,1234.12Z" transform="translate(-611.58 -1108.14)" style="fill:#231f20"/><path d="M1405.83,1281.75v4H1357v-4c9-2.62,9.53-12.62,9.53-24.77V1136.48c0-8.34-2.38-11.91-11.91-15.48v-4l41.68-8.81V1257C1396.3,1270.08,1397.5,1279.61,1405.83,1281.75Z" transform="translate(-611.58 -1108.14)" style="fill:#231f20"/><path d="M1470.37,1281.75v4h-48.82v-4c9-2.86,9.53-12.86,9.53-25v-52.87c0-8.1-2.38-11.43-12.15-16.67v-4l41.68-9.53v83.12C1460.61,1270.08,1461.8,1279.37,1470.37,1281.75Zm-26.91-127.18a16.19,16.19,0,1,1,0-32.39A16.2,16.2,0,1,1,1443.46,1154.58Z" transform="translate(-611.58 -1108.14)" style="fill:#231f20"/><path d="M1602.55,1281.75v4h-49.06v-4c9-2.62,9.53-12.86,9.53-25v-46.2c0-11.43-7.38-19.77-19.29-19.77-9.29,0-20.24,10-20.24,19.53v46.92c0,13.1,1.43,22.15,9.76,24.53v4h-48.82v-4c9-2.62,9.29-12.38,9.29-24.53V1203.4c0-8.34-2.14-11-11.91-16.19v-4l41.68-9.53v25.48c5.48-14.53,24.29-25.48,39.3-25.48,18.58,0,30,7.38,30,36.2v46.92C1592.78,1269.84,1594,1279.61,1602.55,1281.75Z" transform="translate(-611.58 -1108.14)" style="fill:#231f20"/><path d="M1738.77,1193.4c-5.48,5-14.05,4.29-19.05-1.19a12,12,0,0,1-2.86-9.53c0.24-1.91-5.48-.71-9.53,4.29,5.72,6,8.57,13.81,8.57,22.39,0,19.29-16.67,35.72-46,35.72-9.29,0-16.19-1.19-21.91-3.57-6.43,2.86-21,22.39,4.29,22.39h33.34c16.43,0,44.06,1.9,39.53,37.87,0,0-1.19,20-26.2,34.06-33.34,18.58-76.69,16.43-86-3.1-8.34-17.39,6.19-36.44,20.24-42.63-6.43-3.1-12.38-9.29-12.38-20,0,0-.24-21.67,22.86-30.48a33.47,33.47,0,0,1-19.53-30.25c0-19.29,16.67-35.72,45.73-35.72,15.72,0,26.67,4,34.29,10.48a34.11,34.11,0,0,1,22.39-14.05,14.27,14.27,0,0,1,13.34,4.29A13.34,13.34,0,0,1,1738.77,1193.4Zm-101.22,99.07c-21.91,12.38-5,31.44-5,31.44,13.1,15.72,41.92,21.43,64.3,8.34,15.72-9.53,13.81-23.82,13.81-23.82s-2.14-12.62-19.53-12.62h-32.39C1656.13,1295.8,1646.84,1296.28,1637.55,1292.47Zm50.49-83.12c0-26.67-7.86-31.67-18.1-31.67-11.91,0-17.86,5-17.86,31.67s7.38,31.67,17.86,31.67C1680.9,1241,1688,1236,1688,1209.35Z" transform="translate(-611.58 -1108.14)" style="fill:#231f20"/></svg>