<svg xmlns="http://www.w3.org/2000/svg" viewBox="0 0 256.48 56.01"><title>Fichier 1</title><path d="M3.52,36.45c-.8-.63-1.54-1.53-1.33-2.38.53-2.39,4-10.87,6.1-15.1,1.85-3.93,6-14,7.84-17-1,.11-2,.22-3,.37C5,3.81,1.24,8.37,1.4,9.16,1.5,10.27.23,9.8,0,8.47c-.26-2,2-4.71,5.19-6.25,5.3-2.54,15.16-3.29,21.84-.16,7.1,3.5,7.15,10,5.35,15.32C29.7,24.79,26,29.62,19.31,33.91A24.37,24.37,0,0,1,5.37,37.46,2.16,2.16,0,0,1,3.52,36.45Zm2.07-.79a17.6,17.6,0,0,0,10.06-3c7-4.34,13.15-12.72,13.73-20.24.48-6.2-3.18-9.7-9.06-10.39-1.38,2.28-5.41,10.65-9,19.18C8.39,28,6.17,33.17,5.59,35.66Z" style="fill:#efcadc"/><path d="M46.18,15.94c1.75,0,3.66.85,3.55,3.87,0,1.75-1.48,5.78-3.76,9.22h.32c4.29-.26,8.79-7.68,9.38-8.48.42-.68,1.22-.37,1,.69-.53.85-2.91,6-7,8.38a8.05,8.05,0,0,1-4.93,1.11,12.27,12.27,0,0,1-4.93,4c-3,1.12-7.89-1.69-8.11-5.29-.37-5.94,4.51-14.9,10.07-15.74,1.54-.22,4,.63,4.51,1.85C46.39,15.79,46.34,15.89,46.18,15.94Zm-.26,0a7.53,7.53,0,0,0-2.81-.15c-3.39.79-8.64,9.16-8.32,15.31.16,2.7,2.49,2.17,3.81,1.22a16.15,16.15,0,0,0,3.18-3,6.84,6.84,0,0,1-1-1.16c-2.65-3.87-.21-9.22,3-11.61A4.22,4.22,0,0,1,45.92,15.94ZM42.84,28c2.28-3,4.14-6.73,4.4-9.75.16-1.65-2.12-1.17-3.81,1.06C41.25,22.14,40.78,26.17,42.84,28Z" style="fill:#efcadc"/><path d="M53.39,32.64c2.12.21,14.1-15.79,14.36-16.64.85-.85,4.24.21,3.13,1.91S63,32,66.21,32.32c1.91.21,9.07-8.64,10.76-11.24.69-.63,1.17-.42,1.06.91C76.87,24.05,71,33.22,68,34c-2.54.63-5.51-1.17-5.93-3-.58-2.55.9-5.94,1.11-6.36-.48.63-5.19,7.52-8.69,9.27-1.8.9-5.41-.53-5-3.55.79-5.24,7.68-14.2,7.79-15.47.74-1.06,3.87,0,3.39,1.27C60.07,17.69,50.37,32.32,53.39,32.64Z" style="fill:#efcadc"/><path d="M84.45,23.1c1.8-2,4.08-6.68,1.69-7.42-1.8-.58-4.71,2.6-7.47,7.42-1.32,2.33-4,9.22-.37,10,4.4,1,12.61-8.32,14.89-12.24.43-.42,1.06.32,1,.53C92.77,25,87.36,32.11,82.54,34.33c-3.23,1.49-9.06-.53-9.54-3.6-.9-5.56,4.19-14,8.64-16.11,2.12-1.06,4.72-.37,6.73.48,1.59.16,2.44,1.32,2.33,2.22C90.54,19,87.52,22.73,86,23.68,85,24.26,84.08,23.84,84.45,23.1Z" style="fill:#efcadc"/><path d="M93,26.44a9.91,9.91,0,0,0-.63,2.81c-.06,1.48.63,3.12,2.38,3.33,5,.59,11.34-8.63,13.67-11.55.59-.63,1.33-.42,1.38.21-1.7,3.4-6.41,10.23-10.92,12.62-3.12,1.64-8.37.16-9.64-3.4C87.26,25,93.41,16,97.86,13.88c3.65-1.75,7.73,2,7.36,4.29C104.8,20.87,97.27,24.69,93,26.44Zm.9-2.18c4.77-2.59,10.44-7.36,8.11-8.63C100.61,14.94,96.27,19.55,93.88,24.26Z" style="fill:#efcadc"/><path d="M106.44,32.64c2.12.21,14.1-15.79,14.36-16.64.85-.85,4.24.21,3.13,1.91S116,32,119.27,32.32c1.9.21,9.06-8.64,10.76-11.24.68-.63,1.16-.42,1.05.91-1.16,2.06-7,11.23-10.06,12-2.55.63-5.52-1.17-5.94-3-.58-2.55.9-5.94,1.11-6.36-.47.63-5.19,7.52-8.69,9.27-1.8.9-5.4-.53-5-3.55.8-5.24,7.68-14.2,7.79-15.47.74-1.06,3.87,0,3.39,1.27C113.12,17.69,103.42,32.32,106.44,32.64Z" style="fill:#efcadc"/><path d="M138.67,15.73c1.64.43,3,1.49,1.37,3.39-2.81,3.4-7.15,13.78-4.4,14.15,1.65.22,5.83-3.71,7.64-6.46.42-.58,1.32-.37.84.58C143,30,139.67,34.65,138,35.18c-2,.64-6.31-1-6.62-4.61s3.6-10.49,4.71-12.51c.69-1.11-.9-1.21-2.44-1.48-1.43,2.23-4.5,6.84-5.72,8.32-.63.58-1.7.11-1.43-.58,1-1.59,4.19-6.15,5.3-8.22a1.1,1.1,0,0,1-.58-.63c-.59-1.7,1.85-6.41,3.07-6.89.8-.32,2.38.95,2.23,2a19.48,19.48,0,0,1-2.12,4.77C134.43,15.41,137.82,15.52,138.67,15.73Z" style="fill:#efcadc"/><path d="M204.28,11c-.7,2.52-2.8,4.9-4.76,7.28-1.05.84-2.66.77-2.1-.42,1.19-2.24,4.48-9.17.84-10.08l-.7-.14c-3,.14-8.75,2.24-11.13,7.35-2.59,5.53,6.37,11.48,9.59,15.9,3.08,4.69,5.11,10.78-.7,16.66-6.23,6.09-12.74,7.7-21.07,8.4-8,.7-14.14-6-11.34-9.8,4-5.46,13.79-7.63,18.76-7.91.77.21,1,1.68-.14,1.75-3.29.84-10.85,4.34-13.79,7.35s-3.29,5.46,2.17,5.67a29.11,29.11,0,0,0,21.21-8.33c4.2-4.2,5.11-9.87.21-15.26-3.64-3.86-10.92-9-10.85-13-.21-4.13,4.13-8.4,9.31-9.94a15.2,15.2,0,0,1,7.91-.14h.14C200,6.18,205.19,8.42,204.28,11Z" style="fill:#efcadc"/><path d="M217.79,26c2.31,0,4.83,1.13,4.69,5.12-.07,2.31-2,7.63-5,12.18h.42c5.67-.35,11.62-10.15,12.39-11.2.56-.91,1.61-.49,1.33.91-.7,1.12-3.85,7.91-9.24,11.06a10.61,10.61,0,0,1-6.51,1.47,16.29,16.29,0,0,1-6.51,5.25c-3.92,1.47-10.43-2.24-10.71-7-.49-7.84,5.95-19.68,13.3-20.8,2-.28,5.25.84,6,2.45C218.07,25.78,218,25.92,217.79,26Zm-.35,0a9.93,9.93,0,0,0-3.71-.21c-4.48,1-11.41,12.12-11,20.24.21,3.57,3.29,2.87,5,1.61a21.69,21.69,0,0,0,4.2-3.92,9.26,9.26,0,0,1-1.26-1.54c-3.5-5.11-.28-12.18,3.92-15.34A5.53,5.53,0,0,1,217.44,26Zm-4.06,16c3-4,5.46-8.89,5.81-12.89.21-2.17-2.8-1.54-5,1.41C211.28,34.19,210.65,39.51,213.38,42Z" style="fill:#efcadc"/><path d="M233.89,27.89c-.42,1.54-1.68,2.93-4,7.42-3.92,7.56-5,12.88-2.24,12.39,3.71-.7,12.32-12,14.14-14.91a1,1,0,0,1,1.54.84C241.87,37.69,234.52,47,231.16,49a6.47,6.47,0,0,1-8.26-.91c-1.61-1.75-1.75-5.53,1.4-12,2.73-5.67,5.18-8.41,5.39-10.3C230.53,24.66,234.31,26,233.89,27.89Zm-.14-12c1.68-1.19,4.27-1.4,5.67-.21,1,.77.35,2.24-.63,3A6.92,6.92,0,0,1,234,19.76C232.35,19.55,232,17.17,233.75,15.91Z" style="fill:#efcadc"/><path d="M240,39.72a9.07,9.07,0,0,0-.63,3.64c.14,3.08.77,4.34,3.15,4.55,3.08.28,8.75-4.06,11.83-8.12.7-.56,1.33-.14,1.26.84-2.59,4.83-6.16,8.54-8.61,9.52-3.85,1.54-10.57-1.4-11.76-5.95-1.68-6.51,5.25-18.07,11.13-20.87,4.83-2.31,10.71,1.82,10.08,4.91S245.58,37.2,240,39.72Zm1.26-2.94c6.37-3.36,13.93-9.32,10.57-11.21C250.06,24.59,244.32,30.76,241.24,36.78Z" style="fill:#efcadc"/><path d="M159.28,26.7c-1.81,3.66-3.45,9.06-1.6,8,1.2-.6,5-5.34,5.76-6.45.27-.18.66-.06.6.45-.54,1.11-4.17,6.12-5.58,6.9-1,.57-3.33.21-3.56-1.65a6.25,6.25,0,0,1,.21-2.34c-1.27,1.71-2.91,3.57-3.91,4.05a2.35,2.35,0,0,1-2.69-1.35c-.69-2,2.61-8.31,5.4-9.57a3.74,3.74,0,0,1,3.75.63c1.22-2.37,2.51-5.25,4.08-7.74.63-.78,2.78-.81,2.42-.21A79.68,79.68,0,0,0,159.28,26.7Zm-3.07,1.74,1-2.25a1.78,1.78,0,0,0-1.94-.48c-2.22.93-5.95,8.82-4.78,8.88C151.36,34.65,154.87,30.81,156.21,28.44Z" style="fill:#efcadc"/><path d="M163.89,31.44a3.89,3.89,0,0,0-.27,1.56c.06,1.32.33,1.86,1.35,2,1.32.12,3.75-1.74,5.07-3.48.3-.24.57-.06.54.36a9.43,9.43,0,0,1-3.69,4.08c-1.64.66-4.52-.6-5-2.55-.73-2.79,2.24-7.74,4.76-8.94,2.07-1,4.59.78,4.32,2.1S166.29,30.36,163.89,31.44Zm.54-1.26c2.73-1.44,6-4,4.53-4.8C168.21,25,165.75,27.6,164.43,30.18Z" style="fill:#efcadc"/></svg>